<svg xmlns="http://www.w3.org/2000/svg" width="780" height="180" viewBox="0 0 780 180">
<rect width="100%" height="100%" fill="#ffffff"/>
<rect x="22" y="24" width="116" height="130" rx="14" fill="#ffffff" stroke="#dddddd" stroke-width="2"/>
<circle cx="80" cy="88" r="42" fill="none" stroke="#1f5fd1" stroke-width="4"/>
<circle cx="80" cy="88" r="7" fill="#1f5fd1"/>
<text x="150" y="98" text-anchor="middle" font-size="34" fill="#555555">→</text>
<rect x="157" y="24" width="116" height="130" rx="14" fill="#ffffff" stroke="#dddddd" stroke-width="2"/>
<rect x="173" y="46" width="84" height="84" rx="6" fill="none" stroke="#e63935" stroke-width="4"/>
<circle cx="215" cy="88" r="7" fill="#e63935"/>
<text x="285" y="98" text-anchor="middle" font-size="34" fill="#555555">→</text>
<rect x="292" y="24" width="116" height="130" rx="14" fill="#ffffff" stroke="#dddddd" stroke-width="2"/>
<circle cx="350" cy="88" r="42" fill="none" stroke="#1f5fd1" stroke-width="4"/>
<circle cx="336" cy="88" r="7" fill="#1f5fd1"/>
<circle cx="364" cy="88" r="7" fill="#1f5fd1"/>
<text x="420" y="98" text-anchor="middle" font-size="34" fill="#555555">→</text>
<rect x="427" y="24" width="116" height="130" rx="14" fill="#ffffff" stroke="#dddddd" stroke-width="2"/>
<rect x="443" y="46" width="84" height="84" rx="6" fill="none" stroke="#e63935" stroke-width="4"/>
<circle cx="471" cy="88" r="7" fill="#e63935"/>
<circle cx="499" cy="88" r="7" fill="#e63935"/>
<text x="555" y="98" text-anchor="middle" font-size="34" fill="#555555">→</text>
<rect x="562" y="24" width="116" height="130" rx="14" fill="#ffffff" stroke="#dddddd" stroke-width="2"/>
<rect x="575" y="43" width="90" height="90" rx="12" fill="none" stroke="#999999" stroke-width="3" stroke-dasharray="8 7"/><text x="620" y="106" text-anchor="middle" font-size="60" fill="#777777">?</text>
</svg>
