<svg xmlns="http://www.w3.org/2000/svg" width="760" height="520" viewBox="0 0 760 520">
  <rect x="0" y="0" width="760" height="520" rx="34" fill="#ffffff"/>
  <rect x="90" y="70" width="450" height="450" fill="#ffffff" stroke="#d8d8d8" stroke-width="2"/>
  
<g transform="translate(90,70)">
  <rect x="0" y="0" width="150" height="150" fill="#ffffff" stroke="#d8d8d8" stroke-width="2"/>
  
<circle cx="75" cy="75" r="38"
        fill="none"
        stroke="#2563eb"
        stroke-width="8"/>
<line x1="48" y1="75" x2="102" y2="75" stroke="#2563eb" stroke-width="8" stroke-linecap="round"/>

</g>

<g transform="translate(240,70)">
  <rect x="0" y="0" width="150" height="150" fill="#ffffff" stroke="#d8d8d8" stroke-width="2"/>
  
<circle cx="75" cy="75" r="38"
        fill="none"
        stroke="#ef4444"
        stroke-width="8"/>
<line x1="48" y1="66" x2="102" y2="66" stroke="#ef4444" stroke-width="8" stroke-linecap="round"/>
<line x1="48" y1="132" x2="102" y2="132" stroke="#ef4444" stroke-width="8" stroke-linecap="round"/>

</g>

<g transform="translate(390,70)">
  <rect x="0" y="0" width="150" height="150" fill="#ffffff" stroke="#d8d8d8" stroke-width="2"/>
  
<circle cx="75" cy="75" r="38"
        fill="none"
        stroke="#2563eb"
        stroke-width="8"/>
<line x1="48" y1="58" x2="102" y2="58" stroke="#2563eb" stroke-width="8" stroke-linecap="round"/>
<line x1="48" y1="75" x2="102" y2="75" stroke="#2563eb" stroke-width="8" stroke-linecap="round"/>
<line x1="48" y1="140" x2="102" y2="140" stroke="#2563eb" stroke-width="8" stroke-linecap="round"/>

</g>

<g transform="translate(90,220)">
  <rect x="0" y="0" width="150" height="150" fill="#ffffff" stroke="#d8d8d8" stroke-width="2"/>
  
<rect x="38" y="38" width="74" height="74" rx="14"
      fill="none"
      stroke="#ef4444"
      stroke-width="8"/>
<line x1="48" y1="75" x2="102" y2="75" stroke="#ef4444" stroke-width="8" stroke-linecap="round"/>

</g>

<g transform="translate(240,220)">
  <rect x="0" y="0" width="150" height="150" fill="#ffffff" stroke="#d8d8d8" stroke-width="2"/>
  
<rect x="38" y="38" width="74" height="74" rx="14"
      fill="none"
      stroke="#2563eb"
      stroke-width="8"/>
<line x1="48" y1="66" x2="102" y2="66" stroke="#2563eb" stroke-width="8" stroke-linecap="round"/>
<line x1="48" y1="132" x2="102" y2="132" stroke="#2563eb" stroke-width="8" stroke-linecap="round"/>

</g>

<g transform="translate(390,220)">
  <rect x="0" y="0" width="150" height="150" fill="#ffffff" stroke="#d8d8d8" stroke-width="2"/>
  
<rect x="38" y="38" width="74" height="74" rx="14"
      fill="none"
      stroke="#ef4444"
      stroke-width="8"/>
<line x1="48" y1="58" x2="102" y2="58" stroke="#ef4444" stroke-width="8" stroke-linecap="round"/>
<line x1="48" y1="75" x2="102" y2="75" stroke="#ef4444" stroke-width="8" stroke-linecap="round"/>
<line x1="48" y1="140" x2="102" y2="140" stroke="#ef4444" stroke-width="8" stroke-linecap="round"/>

</g>

<g transform="translate(90,370)">
  <rect x="0" y="0" width="150" height="150" fill="#ffffff" stroke="#d8d8d8" stroke-width="2"/>
  
<polygon points="75,32 40,110 110,110"
         fill="none"
         stroke="#2563eb"
         stroke-width="8"
         stroke-linejoin="round"/>
<line x1="125.6" y1="75" x2="174.4" y2="75" stroke="#2563eb" stroke-width="8" stroke-linecap="round"/>

</g>

<g transform="translate(240,370)">
  <rect x="0" y="0" width="150" height="150" fill="#ffffff" stroke="#d8d8d8" stroke-width="2"/>
  
<polygon points="75,32 40,110 110,110"
         fill="none"
         stroke="#ef4444"
         stroke-width="8"
         stroke-linejoin="round"/>
<line x1="132.4" y1="66" x2="167.6" y2="66" stroke="#ef4444" stroke-width="8" stroke-linecap="round"/>
<line x1="114.3" y1="91" x2="138.7" y2="91" stroke="#ef4444" stroke-width="8" stroke-linecap="round"/>

</g>

<g transform="translate(390,370)">
  <rect x="0" y="0" width="150" height="150" fill="#ffffff" stroke="#d8d8d8" stroke-width="2"/>
  
<rect x="35" y="35" width="80" height="80" rx="12"
      fill="#ffffff"
      stroke="#8b8b8b"
      stroke-width="4"
      stroke-dasharray="10 8"/>
<text x="75" y="91"
      font-size="58"
      text-anchor="middle"
      fill="#666666"
      font-family="Arial, sans-serif">?</text>

</g>

</svg>
