<svg xmlns="http://www.w3.org/2000/svg" width="170" height="170" viewBox="0 0 170 170">
<rect width="100%" height="100%" fill="#ffffff"/>
<rect x="8" y="8" width="154" height="154" rx="18" fill="#ffffff" stroke="#dddddd" stroke-width="2"/>
<polygon points="85.0,43.0 121.4,64.0 121.4,106.0 85.0,127.0 48.6,106.0 48.6,64.0" fill="none" stroke="#111111" stroke-width="3" stroke-linejoin="round"/>
<polygon points="85.0,53.0 112.7,69.0 112.7,101.0 85.0,117.0 57.3,101.0 57.3,69.0" fill="none" stroke="#111111" stroke-width="3" stroke-linejoin="round"/>
<polygon points="85.0,63.0 104.1,74.0 104.1,96.0 85.0,107.0 65.9,96.0 65.9,74.0" fill="none" stroke="#111111" stroke-width="3" stroke-linejoin="round"/>
<polygon points="85.0,67.0 100.6,76.0 100.6,94.0 85.0,103.0 69.4,94.0 69.4,76.0" fill="none" stroke="#111111" stroke-width="2" stroke-linejoin="round"/>
<line x1="75.1" y1="67" x2="94.9" y2="67" stroke="#111111" stroke-width="2"/>
<line x1="67" y1="75.1" x2="67" y2="94.9" stroke="#111111" stroke-width="2"/>
<line x1="75.1" y1="85" x2="94.9" y2="85" stroke="#111111" stroke-width="2"/>
<line x1="85" y1="75.1" x2="85" y2="94.9" stroke="#111111" stroke-width="2"/>
<line x1="75.1" y1="103" x2="94.9" y2="103" stroke="#111111" stroke-width="2"/>
<line x1="103" y1="75.1" x2="103" y2="94.9" stroke="#111111" stroke-width="2"/>
</svg>
